<?xml version="1.0" encoding="utf-8"?>
<!DOCTYPE svg PUBLIC "-//W3C//DTD SVG 1.0//EN" "http://www.w3.org/TR/2001/REC-SVG-20010904/DTD/svg10.dtd">
<svg version="1.0" xmlns="http://www.w3.org/2000/svg" width="600px" height="480px" viewBox="0 0 600 480" preserveAspectRatio="xMidYMid meet">
 <g fill="#f6f6f6">
  <path d="M0 240 l0 -240 300 0 300 0 0 240 0 240 -300 0 -300 0 0 -240z m248.25 101.30 c7.40 -3.35 10.50 -11.45 7.10 -18.40 -5.40 -11.05 -21.85 -11.25 -27.30 -0.35 -6.10 12.20 7.30 24.65 20.20 18.75z m64.45 1 c3.75 -1.15 6.10 -3.05 7.65 -6.25 1.35 -2.70 1.40 -3.10 1.55 -12.15 l0.20 -9.40 -4.30 0 -4.30 0 0 8.80 c0 11.20 -0.20 11.70 -5.05 11.70 -4.50 0 -4.60 -0.25 -4.85 -11.30 l-0.20 -9.25 -4.10 0.15 -4.05 0.15 0.05 9 c0.05 8.15 0.15 9.25 1.15 11.50 1.80 4.05 4.35 6.25 8.40 7.20 2.85 0.70 5.25 0.65 7.85 -0.15z m87.60 -1.30 c3.80 -1.85 6.35 -4.85 7.50 -8.90 2.45 -8.45 -4.10 -16.85 -13.60 -17.50 -4.70 -0.30 -7.90 0.75 -11.20 3.75 -3.05 2.75 -4.50 5.40 -4.85 8.90 -0.70 6.90 4.20 13.40 11.55 15.30 2.90 0.75 7.20 0.15 10.60 -1.55z m-277.40 0.85 c3 -1.10 6.10 -5 6.10 -7.70 0 -2.05 -2.10 -5.20 -4.40 -6.55 -2 -1.15 -3.10 -1.40 -7.10 -1.60 l-4.75 -0.25 -0.15 -1.70 c-0.10 -0.90 0.10 -1.95 0.40 -2.25 0.30 -0.35 3.45 -0.65 7.90 -0.80 l7.35 -0.25 0 -3 0 -3 -9 0 c-8.30 0 -9.15 0.10 -11.10 1.10 -3.75 2 -5.70 5.75 -4.65 8.85 1.45 4.45 4.55 6.25 11.35 6.65 l4.70 0.30 -0.15 2.05 -0.15 2.05 -7.60 0.15 -7.65 0.15 0 3.20 0 3.25 8.65 -0.05 c5.25 0 9.25 -0.25 10.25 -0.60z m33.20 -0.35 c11.20 -3.45 13.75 -17.20 4.40 -23.65 -3.65 -2.50 -7.85 -3.35 -16.60 -3.35 l-6.90 0 0 14 0 14 7.95 0 c6.50 0 8.55 -0.20 11.15 -1z m56.50 0.50 c4.75 -1.35 7.80 -6.85 5.85 -10.65 -1.90 -3.65 -4.45 -4.95 -10.45 -5.30 l-4.75 -0.30 -0.15 -1.95 c-0.10 -1.20 0.10 -2.10 0.50 -2.35 0.35 -0.25 3.85 -0.45 7.80 -0.45 l7.10 0 0 -3.30 0 -3.30 -8.85 0.20 c-8.15 0.15 -9.10 0.25 -11.30 1.30 -2.60 1.30 -4.85 4.45 -4.85 6.75 0 2.85 2.20 6.15 5.20 7.70 0.80 0.40 3.45 0.85 6.10 1 l4.70 0.30 0 2.15 0 2.20 -7.75 0 -7.75 0 0 3.25 0 3.25 8.40 0 c4.60 0 9.20 -0.25 10.20 -0.50z m75.90 -2.75 l0 -3.20 -7.60 -0.15 -7.65 -0.15 -0.15 -10.60 -0.10 -10.65 -4.25 0 -4.25 0 0 14 0 14 12 0 12 0 0 -3.25z m57.50 -6.75 l0 -10 4.25 0 4.25 0 0 -4 0 -4 -13 0 -13 0 0 4 0 4 4.50 0 4.50 0 0 10 0 10 4.25 0 4.25 0 0 -10z m24 -4 l0 -14.05 -4.10 0.15 -4.15 0.15 -0.15 13.90 -0.10 13.85 4.25 0 4.25 0 0 -14z m53.50 8.75 l0 -5.25 1.65 0 c1.50 0 1.90 0.40 5.35 5.25 l3.70 5.25 4.40 0 4.40 0 0 -14 0 -14.05 -3.60 0.15 -3.65 0.15 0.10 5.15 0.10 5.10 -1.85 0 c-1.80 0 -2.05 -0.20 -5.15 -4.60 -1.75 -2.50 -3.50 -4.90 -3.90 -5.25 -0.45 -0.50 -1.80 -0.65 -4.75 -0.55 l-4.05 0.15 -0.15 13.25 c-0.05 7.30 0 13.50 0.15 13.85 0.15 0.45 1.35 0.65 3.75 0.65 l3.50 0 0 -5.25z m47.40 4.45 c5.80 -2.40 7.60 -8.25 3.85 -12.30 -2.20 -2.40 -4.15 -3.10 -9.25 -3.40 l-4.75 -0.25 -0.15 -1.95 c-0.10 -1.20 0.10 -2.10 0.50 -2.35 0.35 -0.25 3.85 -0.45 7.80 -0.45 l7.10 0 0 -3.30 0 -3.30 -8.85 0.20 c-8 0.15 -9.10 0.30 -11 1.30 -2.45 1.25 -4.40 3.65 -4.90 5.95 -0.65 3.15 2.55 7.80 6.15 8.90 0.65 0.20 3.10 0.50 5.50 0.65 l4.35 0.35 0 2 0 2 -7.60 0.15 -7.65 0.15 0 3.20 0 3.25 8.50 0 c6.60 0 8.95 -0.20 10.40 -0.80z m-166.90 -53.45 c27.15 -5.25 50.30 -21.80 63.95 -45.70 6.85 -12 11.05 -26.95 11.05 -39.30 0 -7.50 -2.05 -17.95 -4.85 -24.95 -1.40 -3.45 -4.70 -9.90 -4.95 -9.65 -0.10 0.05 0.30 1.60 0.85 3.35 1.55 5 2.40 9.85 2.75 16.35 1.15 20.90 -6.75 41.25 -22.30 57.20 -3.35 3.45 -4.05 3.95 -5.60 3.95 -1.75 0 -1.80 -0.05 -4.80 -5.85 -4.85 -9.50 -18.45 -42.05 -21.60 -51.80 -1.45 -4.40 -1.80 -4.65 -4.55 -2.90 -5.90 3.75 -19.95 19.50 -19.95 22.40 0 1.30 6.55 8.25 22.05 23.40 5.05 4.95 11.75 11.25 14.85 13.95 5.40 4.75 5.65 5.05 5.50 6.75 -0.15 1.70 -0.35 1.85 -6 4.80 -11.25 5.85 -20.25 8.20 -33.40 8.60 -15.40 0.50 -25.95 -1.90 -37.10 -8.40 -4.25 -2.45 -4.40 -2.60 -4.40 -4.30 0 -3.10 10.50 -22.50 19.05 -35.25 3.70 -5.55 9.75 -13.65 12.75 -17.25 1.20 -1.40 2.20 -2.70 2.20 -2.90 0 -0.20 -0.80 0.10 -1.80 0.70 -0.95 0.60 -2.50 1.05 -3.35 1.05 -1.45 0 -1.80 -0.35 -3.75 -3.80 -1.85 -3.25 -2.15 -4.15 -1.95 -5.90 0.10 -1.10 3.30 -10.35 7.05 -20.50 3.75 -10.15 6.75 -18.75 6.60 -19.10 -0.15 -0.40 -1 -0.70 -1.95 -0.70 -1.65 0 -1.75 -0.15 -2.75 -2.85 -1.50 -4.30 -2.10 -6.70 -2.10 -8.80 0 -1.10 -0.40 -2.45 -1 -3.25 -1.75 -2.35 -4.30 -10.50 -6.45 -20.35 -2.45 -11.45 -2.70 -12.40 -3.40 -12.60 -2 -0.70 -2.65 17.60 -1.40 38.60 1.60 26.75 0.10 38.95 -8 64.35 -6.40 20.05 -9.25 29.60 -11 37.05 l-1.85 7.85 -1.65 0 c-1.40 0 -2.10 -0.50 -4.40 -3.05 -7.30 -8 -12.55 -19.10 -14.35 -30.10 -0.80 -4.90 -0.60 -19 0.30 -24.40 1.50 -8.65 6 -20.15 10.70 -27.30 l1.55 -2.40 -2.15 2.45 c-13.80 15.55 -22.20 38.15 -21.25 57 1.50 30.15 22.60 55.50 51.95 62.55 2.85 0.70 6.75 1.45 8.65 1.70 4.85 0.70 17.15 0.30 22.25 -0.70z m10.50 -112.30 c7.65 -6.40 14.55 -11.45 21.85 -16.05 8.40 -5.35 16.70 -9.90 18.05 -9.90 0.60 0 1.10 -0.20 1.10 -0.50 0 -1.20 12.75 -6.80 24.50 -10.75 10.40 -3.50 13.45 -4.80 12.20 -5.30 -1.40 -0.55 -10.65 -0.50 -17.20 0.05 -12.95 1.20 -24.30 3.70 -43.75 9.65 -5.75 1.80 -11.80 3.55 -13.45 3.90 -2.65 0.60 -3.25 1 -7.10 4.85 -4.20 4.15 -4.25 4.20 -6.60 4.10 -3.40 -0.20 -3.45 -0.15 -3.75 1.65 -0.15 0.85 -1.65 9.50 -3.30 19.15 -1.70 9.70 -3.05 17.85 -3.05 18.15 0 0.30 3.30 -2.80 7.40 -6.85 4.05 -4.05 9.95 -9.55 13.10 -12.15z m0.80 -41.25 c5.10 -2.40 9.35 -8.75 9.35 -14 0 -7.05 -7.10 -14.50 -14.45 -15.10 -7.10 -0.60 -14.60 5.50 -16.20 13.15 -0.75 3.65 0.80 8.35 3.85 11.75 5.20 5.80 11.10 7.20 17.45 4.20z"/>
  <path d="M236.70 333.85 c-1.10 -0.95 -1.40 -1.70 -1.60 -3.95 -0.50 -6 1.75 -8.30 7.65 -7.75 4.15 0.40 5.25 1.65 5.25 6.15 0 5.45 -1.15 6.65 -6.35 6.70 -3.05 0 -3.80 -0.15 -4.95 -1.15z"/>
  <path d="M388.85 334.45 c-2.15 -1.25 -3 -6.40 -1.65 -9.65 0.90 -2.10 3.30 -3 7.10 -2.70 1.95 0.15 3.05 0.55 3.95 1.40 1.15 1.05 1.25 1.55 1.25 5.10 0 3.50 -0.15 4.10 -1.25 5.15 -1.05 1.10 -1.65 1.25 -4.85 1.25 -2 0 -4.05 -0.25 -4.55 -0.55z"/>
  <path d="M145.50 328.50 l0 -6 3.95 0 c6.75 0 8 0.95 8.05 6.15 0 2.95 -0.15 3.55 -1.25 4.60 -1.10 1.15 -1.60 1.25 -6 1.25 l-4.75 0 0 -6z"/>
 </g>
 <g fill="#1c6fc6">
  <path d="M236 343.85 c-7.15 -2 -11.25 -7.80 -11.15 -15.75 0.05 -3.05 0.30 -4.20 1.65 -6.90 2.75 -5.60 7.80 -8.35 15.20 -8.30 7.20 0.05 12.45 2.95 15.15 8.50 1.20 2.50 1.40 3.45 1.40 7.35 0 3.65 -0.20 4.90 -1.15 6.80 -2.75 5.60 -7.55 8.45 -14.55 8.75 -2.55 0.10 -5.20 -0.05 -6.55 -0.45z m8.55 -11 c2.10 -1.60 2.60 -5.40 0.95 -7.50 -2.20 -2.80 -7.40 -1.95 -8.50 1.35 -1.25 3.80 0.85 6.80 4.70 6.80 1.10 0 2.40 -0.30 2.85 -0.65z"/>
  <path d="M303.35 343.95 c-4.05 -0.95 -6.60 -3.10 -8.40 -7.20 -1.05 -2.30 -1.15 -3.25 -1.15 -13 l-0.05 -10.50 5.75 0 5.75 0 0.05 9.15 c0.10 7.95 0.20 9.30 1 10.15 0.45 0.50 1.45 0.95 2.15 0.95 3.15 -0.05 3.55 -1.35 3.55 -11.70 l0 -8.80 5.80 0 5.80 0 -0.20 10.90 c-0.15 10.70 -0.15 10.90 -1.55 13.65 -1.55 3.20 -3.90 5.10 -7.65 6.25 -2.60 0.75 -7.90 0.85 -10.85 0.15z"/>
  <path d="M388.20 344.05 c-7.85 -2 -12.05 -8.05 -11.60 -16.70 0.25 -4.90 1.30 -7.20 4.65 -10.30 2.70 -2.50 4.90 -3.50 8.85 -4.05 10.75 -1.55 19.15 4.55 19.80 14.30 0.45 7.10 -2.40 12.40 -8.20 15.25 -2.85 1.40 -3.95 1.65 -7.65 1.80 -2.35 0.05 -5 -0.05 -5.85 -0.30z m8.55 -11.80 c1.75 -1.70 1.75 -5.60 0.10 -7.15 -2.65 -2.50 -7.25 -1.65 -8.35 1.60 -0.70 2.20 0 4.90 1.65 6.05 1.75 1.20 5.20 0.95 6.60 -0.50z"/>
  <path d="M102.50 339.25 l0 -4.70 7.60 -0.15 c4.95 -0.10 7.65 -0.35 7.75 -0.70 0.10 -0.35 -1.40 -0.65 -4.50 -0.85 -6.60 -0.35 -9.35 -1.85 -11.10 -6 -0.95 -2.35 -0.95 -5.35 0 -7.70 1 -2.40 2.05 -3.50 4.50 -4.85 1.85 -0.95 2.70 -1.05 12.50 -1.05 l10.50 0 0.15 3.75 c0.25 6.15 0.75 5.75 -7.10 5.60 -6.55 -0.15 -9.25 0.30 -8.55 1.45 0.20 0.25 2.20 0.45 4.45 0.45 3.60 0 4.55 0.20 6.85 1.40 5.75 3 6.80 10.85 2 15.35 -2.50 2.40 -3.95 2.65 -14.90 2.70 l-10.15 0.05 0 -4.75z"/>
  <path d="M135.50 328.50 l0 -15.50 8.40 0 c10.35 0 14.25 0.75 18.10 3.35 2.05 1.45 3.10 2.60 4.25 4.85 1.35 2.70 1.50 3.45 1.50 7.50 -0.05 3.95 -0.25 4.90 -1.40 7.10 -1.80 3.50 -4.85 6 -8.75 7.20 -2.70 0.85 -4.65 1 -12.65 1 l-9.45 0 0 -15.50z m19.25 3.25 c0.90 -0.85 1.25 -1.75 1.25 -3.10 -0.05 -3.30 -1.95 -4.65 -6.55 -4.65 l-2.45 0 0 4.50 0 4.50 3.25 0 c2.85 0 3.45 -0.15 4.50 -1.25z"/>
  <path d="M192.50 339.25 l0 -4.75 7.75 0 c6.20 0 7.75 -0.15 7.75 -0.70 0 -0.50 -1.20 -0.75 -4.70 -0.95 -5 -0.30 -6.75 -0.90 -8.90 -3.20 -1.80 -1.90 -2.40 -3.65 -2.40 -7 0 -3.85 1.65 -6.65 4.85 -8.25 2.25 -1.05 3.10 -1.15 12.80 -1.30 l10.40 -0.15 -0.15 4.80 -0.15 4.85 -7 -0.05 c-3.85 -0.05 -7.30 0.15 -7.70 0.40 -1.40 0.90 0.05 1.55 3.60 1.55 4.40 0 6.85 0.65 8.85 2.30 1.85 1.60 2.55 2.85 3.05 5.45 0.90 4.90 -1.95 10 -6.30 11.20 -1.15 0.30 -6.20 0.55 -11.85 0.55 l-9.90 0 0 -4.75z"/>
  <path d="M263 328.50 l0 -15.50 5.75 0 5.75 0 0.10 10.65 0.15 10.60 7.65 0.15 7.60 0.15 0 4.70 0 4.75 -13.50 0 -13.50 0 0 -15.50z"/>
  <path d="M336 334 l0 -10 -4.50 0 -4.50 0 0 -5.50 0 -5.50 14.50 0 14.50 0 0 5.50 0 5.50 -4.25 0 -4.25 0 0 10 0 10 -5.75 0 -5.75 0 0 -10z"/>
  <path d="M360.10 328.65 l0.15 -15.40 5.65 -0.15 5.60 -0.15 0 15.55 0 15.50 -5.75 0 -5.75 0 0.10 -15.35z"/>
  <path d="M414.75 343.35 c-0.15 -0.35 -0.20 -7.25 -0.15 -15.35 l0.15 -14.75 5.55 -0.15 c4.20 -0.10 5.75 0.05 6.25 0.55 0.40 0.40 2.15 2.75 3.90 5.25 1.80 2.55 3.35 4.60 3.50 4.60 0.20 0 0.30 -2.30 0.30 -5.10 l0 -5.15 5.15 -0.15 5.10 -0.15 0 15.55 0 15.50 -5.90 0 -5.90 0 -3.75 -5.25 -3.70 -5.30 -0.15 5.30 -0.15 5.25 -5 0 c-3.55 0 -5.05 -0.20 -5.20 -0.65z"/>
  <path d="M450.45 343.80 c-0.10 -0.10 -0.15 -2.25 -0.05 -4.75 l0.15 -4.50 7.50 -0.15 c8.40 -0.15 10.20 -0.95 3.35 -1.50 -5.20 -0.40 -6.15 -0.65 -8.35 -2.30 -2.45 -1.85 -3.75 -5.05 -3.40 -8.70 0.30 -3.50 1.85 -5.85 5 -7.50 1.95 -1.05 2.90 -1.15 12.50 -1.30 l10.35 -0.20 0 4.80 0 4.80 -7.10 0 c-3.95 0 -7.45 0.20 -7.85 0.45 -1.50 0.95 0.10 1.55 4.15 1.55 4.85 0 8.35 1.40 10.20 4.20 2.30 3.40 2.05 8.65 -0.55 11.65 -2.90 3.30 -4.30 3.65 -15.65 3.65 -5.50 0 -10.15 -0.10 -10.25 -0.20z"/>
  <path d="M280.25 290.45 c-30.60 -4.15 -53.20 -24.95 -59.50 -54.70 -1.15 -5.40 -1.55 -16.95 -0.75 -23.10 3.50 -28.05 21.20 -53.40 47.15 -67.60 2.10 -1.20 3.85 -2 3.85 -1.85 0 0.10 -2.10 1.65 -4.60 3.40 -6.15 4.10 -16.20 14.15 -20.35 20.30 -6.15 9.05 -10.55 19.80 -12.25 29.55 -0.90 5.35 -1.05 16.65 -0.30 21.40 1.85 11.30 8.45 24.65 15.65 31.55 l1.75 1.70 1.85 -7.95 c1.75 -7.45 4.60 -16.95 11 -37.05 5.30 -16.50 7.85 -28.80 8.50 -40.60 0.25 -4.15 0.05 -11.15 -0.50 -20.75 -1.10 -18.40 -0.85 -36 0.55 -40.25 0.70 -2.05 1.20 -2.80 2 -2.90 2 -0.30 2.50 1.05 5.65 15.65 2.05 9.40 4.35 16.50 6.10 18.95 0.75 0.95 1.10 2.30 1.20 4.25 0.10 2.30 2.20 9.65 2.95 10.45 0.15 0.10 1.55 -0.80 3.15 -2.05 4.20 -3.25 5 -3.60 6.35 -2.70 0.60 0.40 1.80 2.40 2.65 4.40 0.85 2 1.80 3.75 2.10 3.85 0.30 0.10 2.45 -1.70 4.75 -4 3.85 -3.85 4.45 -4.25 7.10 -4.85 1.65 -0.35 7.70 -2.10 13.45 -3.90 20.10 -6.15 30.95 -8.50 44.50 -9.65 9.35 -0.80 19.45 -0.55 20.50 0.55 2 1.95 -0.15 3.25 -12.40 7.40 -9.70 3.30 -15.55 5.65 -21.45 8.60 l-4 2 3.80 3.80 c33.35 33 23.35 91.85 -20.65 121.25 -10.65 7.10 -21.70 11.65 -34.55 14.15 -5.05 1 -20.05 1.40 -25.25 0.70z m28.65 -24.40 c6.70 -1.50 13.05 -3.75 19.10 -6.85 8.10 -4.10 7.95 -3.20 1.40 -8.95 -8.90 -7.85 -30.75 -29.40 -35.10 -34.65 -2.20 -2.70 -2.40 -5.35 -0.65 -8.20 3.90 -6.40 15.45 -18.30 20.15 -20.75 2.45 -1.30 2.65 -1.30 3.85 -0.50 0.85 0.55 1.60 1.90 2.35 4.15 3.15 9.80 16.70 42.30 21.60 51.80 l3.05 5.90 1.45 -1.05 c2.25 -1.65 9.15 -9.70 12.50 -14.65 15.45 -23.05 16.95 -51.20 3.80 -72.15 -1.45 -2.30 -3.60 -5.25 -4.75 -6.55 l-2.10 -2.35 -4.65 2.45 c-28.70 15.10 -55.05 39.30 -74.85 68.70 -7.50 11.20 -19.65 33.25 -18.75 34.10 1.25 1.15 8.95 5.20 12.25 6.50 4.35 1.65 10.35 3.30 14.70 4 5 0.75 19.30 0.20 24.65 -0.95z m-20.60 -67.25 l3.55 -1.90 3.40 -19.85 c1.85 -10.90 3.45 -20.05 3.55 -20.30 0.15 -0.40 -4.25 -1.90 -4.65 -1.55 -0.05 0 -2.10 5.55 -4.55 12.30 -2.50 6.75 -5.65 15.35 -7.05 19.10 l-2.60 6.90 2.15 3.75 c1.20 2.05 2.25 3.70 2.40 3.60 0.15 -0.05 1.85 -0.95 3.80 -2.05z m12.65 -45.20 l1.10 -0.85 -1.30 -2.85 c-0.70 -1.60 -1.50 -3 -1.75 -3.15 -0.50 -0.30 -5.50 3.20 -5.50 3.90 0 0.95 1.55 3.30 2.35 3.50 2 0.50 4.10 0.30 5.10 -0.55z"/>
  <path d="M304.50 137.35 c-7.60 -2.15 -13.15 -10.20 -12.30 -17.90 0.75 -7.65 5.70 -13.30 13.25 -15.25 7.65 -1.90 15.65 2.05 19.35 9.60 1.25 2.50 1.45 3.55 1.45 6.95 -0.05 4.80 -1.45 8.35 -4.75 11.95 -4 4.30 -11.25 6.30 -17 4.65z"/>
 </g>
</svg>